<svg xmlns="http://www.w3.org/2000/svg" width="195" height="195"><rect x="0" y="0" width="100%" height="100%" fill="rgb(142, 93, 67)" /><g fill="#222" transform="translate(-32.5335, -32.5335) rotate(45, 32.5335, 32.5335)" style="opacity:0.13266666666666665;" ><rect x="23.0" y="0" width="23.0" height="69.0" /><rect x="0" y="23.0" width="69.0" height="23.0" /></g><g fill="#222" transform="translate(162.66749999999996, -32.5335) rotate(45, 32.5335, 32.5335)" style="opacity:0.13266666666666665;" ><rect x="23.0" y="0" width="23.0" height="69.0" /><rect x="0" y="23.0" width="69.0" height="23.0" /></g><g fill="#222" transform="translate(-32.5335, 162.66749999999996) rotate(45, 32.5335, 32.5335)" style="opacity:0.13266666666666665;" ><rect x="23.0" y="0" width="23.0" height="69.0" /><rect x="0" y="23.0" width="69.0" height="23.0" /></g><g fill="#222" transform="translate(162.66749999999996, 162.66749999999996) rotate(45, 32.5335, 32.5335)" style="opacity:0.13266666666666665;" ><rect x="23.0" y="0" width="23.0" height="69.0" /><rect x="0" y="23.0" width="69.0" height="23.0" /></g><g fill="#ddd" transform="translate(0.0, -16.26675) rotate(45, 32.5335, 32.5335)" style="opacity:0.10666666666666667;" ><rect x="23.0" y="0" width="23.0" height="69.0" /><rect x="0" y="23.0" width="69.0" height="23.0" /></g><g fill="#ddd" transform="translate(0.0, 178.93424999999996) rotate(45, 32.5335, 32.5335)" style="opacity:0.10666666666666667;" ><rect x="23.0" y="0" width="23.0" height="69.0" /><rect x="0" y="23.0" width="69.0" height="23.0" /></g><g fill="#222" transform="translate(32.5335, -32.5335) rotate(45, 32.5335, 32.5335)" style="opacity:0.11533333333333334;" ><rect x="23.0" y="0" width="23.0" height="69.0" /><rect x="0" y="23.0" width="69.0" height="23.0" /></g><g fill="#222" transform="translate(32.5335, 162.66749999999996) rotate(45, 32.5335, 32.5335)" style="opacity:0.11533333333333334;" ><rect x="23.0" y="0" width="23.0" height="69.0" /><rect x="0" y="23.0" width="69.0" height="23.0" /></g><g fill="#222" transform="translate(65.06699999999998, -16.26675) rotate(45, 32.5335, 32.5335)" style="opacity:0.13266666666666665;" ><rect x="23.0" y="0" width="23.0" height="69.0" /><rect x="0" y="23.0" width="69.0" height="23.0" /></g><g fill="#222" transform="translate(65.06699999999998, 178.93424999999996) rotate(45, 32.5335, 32.5335)" style="opacity:0.13266666666666665;" ><rect x="23.0" y="0" width="23.0" height="69.0" /><rect x="0" y="23.0" width="69.0" height="23.0" /></g><g fill="#222" transform="translate(97.60049999999998, -32.5335) rotate(45, 32.5335, 32.5335)" style="opacity:0.046;" ><rect x="23.0" y="0" width="23.0" height="69.0" /><rect x="0" y="23.0" width="69.0" height="23.0" /></g><g fill="#222" transform="translate(97.60049999999998, 162.66749999999996) rotate(45, 32.5335, 32.5335)" style="opacity:0.046;" ><rect x="23.0" y="0" width="23.0" height="69.0" /><rect x="0" y="23.0" width="69.0" height="23.0" /></g><g fill="#222" transform="translate(130.134, -16.26675) rotate(45, 32.5335, 32.5335)" style="opacity:0.08066666666666666;" ><rect x="23.0" y="0" width="23.0" height="69.0" /><rect x="0" y="23.0" width="69.0" height="23.0" /></g><g fill="#222" transform="translate(130.134, 178.93424999999996) rotate(45, 32.5335, 32.5335)" style="opacity:0.08066666666666666;" ><rect x="23.0" y="0" width="23.0" height="69.0" /><rect x="0" y="23.0" width="69.0" height="23.0" /></g><g fill="#ddd" transform="translate(-32.5335, 0.0) rotate(45, 32.5335, 32.5335)" style="opacity:0.07200000000000001;" ><rect x="23.0" y="0" width="23.0" height="69.0" /><rect x="0" y="23.0" width="69.0" height="23.0" /></g><g fill="#ddd" transform="translate(162.66749999999996, 0.0) rotate(45, 32.5335, 32.5335)" style="opacity:0.07200000000000001;" ><rect x="23.0" y="0" width="23.0" height="69.0" /><rect x="0" y="23.0" width="69.0" height="23.0" /></g><g fill="#222" transform="translate(0.0, 16.266749999999995) rotate(45, 32.5335, 32.5335)" style="opacity:0.06333333333333334;" ><rect x="23.0" y="0" width="23.0" height="69.0" /><rect x="0" y="23.0" width="69.0" height="23.0" /></g><g fill="#222" transform="translate(32.5335, 0.0) rotate(45, 32.5335, 32.5335)" style="opacity:0.098;" ><rect x="23.0" y="0" width="23.0" height="69.0" /><rect x="0" y="23.0" width="69.0" height="23.0" /></g><g fill="#222" transform="translate(65.06699999999998, 16.266749999999995) rotate(45, 32.5335, 32.5335)" style="opacity:0.098;" ><rect x="23.0" y="0" width="23.0" height="69.0" /><rect x="0" y="23.0" width="69.0" height="23.0" /></g><g fill="#ddd" transform="translate(97.60049999999998, 0.0) rotate(45, 32.5335, 32.5335)" style="opacity:0.14133333333333334;" ><rect x="23.0" y="0" width="23.0" height="69.0" /><rect x="0" y="23.0" width="69.0" height="23.0" /></g><g fill="#ddd" transform="translate(130.134, 16.266749999999995) rotate(45, 32.5335, 32.5335)" style="opacity:0.02;" ><rect x="23.0" y="0" width="23.0" height="69.0" /><rect x="0" y="23.0" width="69.0" height="23.0" /></g><g fill="#ddd" transform="translate(-32.5335, 32.53349999999999) rotate(45, 32.5335, 32.5335)" style="opacity:0.14133333333333334;" ><rect x="23.0" y="0" width="23.0" height="69.0" /><rect x="0" y="23.0" width="69.0" height="23.0" /></g><g fill="#ddd" transform="translate(162.66749999999996, 32.53349999999999) rotate(45, 32.5335, 32.5335)" style="opacity:0.14133333333333334;" ><rect x="23.0" y="0" width="23.0" height="69.0" /><rect x="0" y="23.0" width="69.0" height="23.0" /></g><g fill="#ddd" transform="translate(0.0, 48.80024999999999) rotate(45, 32.5335, 32.5335)" style="opacity:0.05466666666666667;" ><rect x="23.0" y="0" width="23.0" height="69.0" /><rect x="0" y="23.0" width="69.0" height="23.0" /></g><g fill="#222" transform="translate(32.5335, 32.53349999999999) rotate(45, 32.5335, 32.5335)" style="opacity:0.098;" ><rect x="23.0" y="0" width="23.0" height="69.0" /><rect x="0" y="23.0" width="69.0" height="23.0" /></g><g fill="#222" transform="translate(65.06699999999998, 48.80024999999999) rotate(45, 32.5335, 32.5335)" style="opacity:0.11533333333333334;" ><rect x="23.0" y="0" width="23.0" height="69.0" /><rect x="0" y="23.0" width="69.0" height="23.0" /></g><g fill="#ddd" transform="translate(97.60049999999998, 32.53349999999999) rotate(45, 32.5335, 32.5335)" style="opacity:0.07200000000000001;" ><rect x="23.0" y="0" width="23.0" height="69.0" /><rect x="0" y="23.0" width="69.0" height="23.0" /></g><g fill="#ddd" transform="translate(130.134, 48.80024999999999) rotate(45, 32.5335, 32.5335)" style="opacity:0.07200000000000001;" ><rect x="23.0" y="0" width="23.0" height="69.0" /><rect x="0" y="23.0" width="69.0" height="23.0" /></g><g fill="#222" transform="translate(-32.5335, 65.06699999999998) rotate(45, 32.5335, 32.5335)" style="opacity:0.13266666666666665;" ><rect x="23.0" y="0" width="23.0" height="69.0" /><rect x="0" y="23.0" width="69.0" height="23.0" /></g><g fill="#222" transform="translate(162.66749999999996, 65.06699999999998) rotate(45, 32.5335, 32.5335)" style="opacity:0.13266666666666665;" ><rect x="23.0" y="0" width="23.0" height="69.0" /><rect x="0" y="23.0" width="69.0" height="23.0" /></g><g fill="#222" transform="translate(0.0, 81.33374999999998) rotate(45, 32.5335, 32.5335)" style="opacity:0.08066666666666666;" ><rect x="23.0" y="0" width="23.0" height="69.0" /><rect x="0" y="23.0" width="69.0" height="23.0" /></g><g fill="#222" transform="translate(32.5335, 65.06699999999998) rotate(45, 32.5335, 32.5335)" style="opacity:0.13266666666666665;" ><rect x="23.0" y="0" width="23.0" height="69.0" /><rect x="0" y="23.0" width="69.0" height="23.0" /></g><g fill="#222" transform="translate(65.06699999999998, 81.33374999999998) rotate(45, 32.5335, 32.5335)" style="opacity:0.13266666666666665;" ><rect x="23.0" y="0" width="23.0" height="69.0" /><rect x="0" y="23.0" width="69.0" height="23.0" /></g><g fill="#222" transform="translate(97.60049999999998, 65.06699999999998) rotate(45, 32.5335, 32.5335)" style="opacity:0.13266666666666665;" ><rect x="23.0" y="0" width="23.0" height="69.0" /><rect x="0" y="23.0" width="69.0" height="23.0" /></g><g fill="#222" transform="translate(130.134, 81.33374999999998) rotate(45, 32.5335, 32.5335)" style="opacity:0.06333333333333334;" ><rect x="23.0" y="0" width="23.0" height="69.0" /><rect x="0" y="23.0" width="69.0" height="23.0" /></g><g fill="#222" transform="translate(-32.5335, 97.60049999999998) rotate(45, 32.5335, 32.5335)" style="opacity:0.098;" ><rect x="23.0" y="0" width="23.0" height="69.0" /><rect x="0" y="23.0" width="69.0" height="23.0" /></g><g fill="#222" transform="translate(162.66749999999996, 97.60049999999998) rotate(45, 32.5335, 32.5335)" style="opacity:0.098;" ><rect x="23.0" y="0" width="23.0" height="69.0" /><rect x="0" y="23.0" width="69.0" height="23.0" /></g><g fill="#ddd" transform="translate(0.0, 113.86724999999998) rotate(45, 32.5335, 32.5335)" style="opacity:0.10666666666666667;" ><rect x="23.0" y="0" width="23.0" height="69.0" /><rect x="0" y="23.0" width="69.0" height="23.0" /></g><g fill="#222" transform="translate(32.5335, 97.60049999999998) rotate(45, 32.5335, 32.5335)" style="opacity:0.08066666666666666;" ><rect x="23.0" y="0" width="23.0" height="69.0" /><rect x="0" y="23.0" width="69.0" height="23.0" /></g><g fill="#222" transform="translate(65.06699999999998, 113.86724999999998) rotate(45, 32.5335, 32.5335)" style="opacity:0.13266666666666665;" ><rect x="23.0" y="0" width="23.0" height="69.0" /><rect x="0" y="23.0" width="69.0" height="23.0" /></g><g fill="#ddd" transform="translate(97.60049999999998, 97.60049999999998) rotate(45, 32.5335, 32.5335)" style="opacity:0.12400000000000001;" ><rect x="23.0" y="0" width="23.0" height="69.0" /><rect x="0" y="23.0" width="69.0" height="23.0" /></g><g fill="#222" transform="translate(130.134, 113.86724999999998) rotate(45, 32.5335, 32.5335)" style="opacity:0.046;" ><rect x="23.0" y="0" width="23.0" height="69.0" /><rect x="0" y="23.0" width="69.0" height="23.0" /></g><g fill="#222" transform="translate(-32.5335, 130.134) rotate(45, 32.5335, 32.5335)" style="opacity:0.15;" ><rect x="23.0" y="0" width="23.0" height="69.0" /><rect x="0" y="23.0" width="69.0" height="23.0" /></g><g fill="#222" transform="translate(162.66749999999996, 130.134) rotate(45, 32.5335, 32.5335)" style="opacity:0.15;" ><rect x="23.0" y="0" width="23.0" height="69.0" /><rect x="0" y="23.0" width="69.0" height="23.0" /></g><g fill="#222" transform="translate(-32.5335, -65.06700000000001) rotate(45, 32.5335, 32.5335)" style="opacity:0.15;" ><rect x="23.0" y="0" width="23.0" height="69.0" /><rect x="0" y="23.0" width="69.0" height="23.0" /></g><g fill="#ddd" transform="translate(0.0, 146.40075) rotate(45, 32.5335, 32.5335)" style="opacity:0.03733333333333333;" ><rect x="23.0" y="0" width="23.0" height="69.0" /><rect x="0" y="23.0" width="69.0" height="23.0" /></g><g fill="#ddd" transform="translate(0.0, -48.800250000000005) rotate(45, 32.5335, 32.5335)" style="opacity:0.03733333333333333;" ><rect x="23.0" y="0" width="23.0" height="69.0" /><rect x="0" y="23.0" width="69.0" height="23.0" /></g><g fill="#222" transform="translate(32.5335, 130.134) rotate(45, 32.5335, 32.5335)" style="opacity:0.046;" ><rect x="23.0" y="0" width="23.0" height="69.0" /><rect x="0" y="23.0" width="69.0" height="23.0" /></g><g fill="#222" transform="translate(32.5335, -65.06700000000001) rotate(45, 32.5335, 32.5335)" style="opacity:0.046;" ><rect x="23.0" y="0" width="23.0" height="69.0" /><rect x="0" y="23.0" width="69.0" height="23.0" /></g><g fill="#222" transform="translate(65.06699999999998, 146.40075) rotate(45, 32.5335, 32.5335)" style="opacity:0.13266666666666665;" ><rect x="23.0" y="0" width="23.0" height="69.0" /><rect x="0" y="23.0" width="69.0" height="23.0" /></g><g fill="#222" transform="translate(65.06699999999998, -48.800250000000005) rotate(45, 32.5335, 32.5335)" style="opacity:0.13266666666666665;" ><rect x="23.0" y="0" width="23.0" height="69.0" /><rect x="0" y="23.0" width="69.0" height="23.0" /></g><g fill="#222" transform="translate(97.60049999999998, 130.134) rotate(45, 32.5335, 32.5335)" style="opacity:0.11533333333333334;" ><rect x="23.0" y="0" width="23.0" height="69.0" /><rect x="0" y="23.0" width="69.0" height="23.0" /></g><g fill="#222" transform="translate(97.60049999999998, -65.06700000000001) rotate(45, 32.5335, 32.5335)" style="opacity:0.11533333333333334;" ><rect x="23.0" y="0" width="23.0" height="69.0" /><rect x="0" y="23.0" width="69.0" height="23.0" /></g><g fill="#222" transform="translate(130.134, 146.40075) rotate(45, 32.5335, 32.5335)" style="opacity:0.08066666666666666;" ><rect x="23.0" y="0" width="23.0" height="69.0" /><rect x="0" y="23.0" width="69.0" height="23.0" /></g><g fill="#222" transform="translate(130.134, -48.800250000000005) rotate(45, 32.5335, 32.5335)" style="opacity:0.08066666666666666;" ><rect x="23.0" y="0" width="23.0" height="69.0" /><rect x="0" y="23.0" width="69.0" height="23.0" /></g></svg>