<svg xmlns="http://www.w3.org/2000/svg" width="152" height="152"><rect x="0" y="0" width="100%" height="100%" fill="rgb(156, 53, 59)" /><g fill="#ddd" transform="translate(-25.461, -25.461) rotate(45, 25.461, 25.461)" style="opacity:0.08933333333333333;" ><rect x="18.0" y="0" width="18.0" height="54.0" /><rect x="0" y="18.0" width="54.0" height="18.0" /></g><g fill="#ddd" transform="translate(127.30499999999999, -25.461) rotate(45, 25.461, 25.461)" style="opacity:0.08933333333333333;" ><rect x="18.0" y="0" width="18.0" height="54.0" /><rect x="0" y="18.0" width="54.0" height="18.0" /></g><g fill="#ddd" transform="translate(-25.461, 127.30499999999998) rotate(45, 25.461, 25.461)" style="opacity:0.08933333333333333;" ><rect x="18.0" y="0" width="18.0" height="54.0" /><rect x="0" y="18.0" width="54.0" height="18.0" /></g><g fill="#ddd" transform="translate(127.30499999999999, 127.30499999999998) rotate(45, 25.461, 25.461)" style="opacity:0.08933333333333333;" ><rect x="18.0" y="0" width="18.0" height="54.0" /><rect x="0" y="18.0" width="54.0" height="18.0" /></g><g fill="#222" transform="translate(0.0, -12.7305) rotate(45, 25.461, 25.461)" style="opacity:0.11533333333333334;" ><rect x="18.0" y="0" width="18.0" height="54.0" /><rect x="0" y="18.0" width="54.0" height="18.0" /></g><g fill="#222" transform="translate(0.0, 140.03549999999998) rotate(45, 25.461, 25.461)" style="opacity:0.11533333333333334;" ><rect x="18.0" y="0" width="18.0" height="54.0" /><rect x="0" y="18.0" width="54.0" height="18.0" /></g><g fill="#ddd" transform="translate(25.461, -25.461) rotate(45, 25.461, 25.461)" style="opacity:0.10666666666666667;" ><rect x="18.0" y="0" width="18.0" height="54.0" /><rect x="0" y="18.0" width="54.0" height="18.0" /></g><g fill="#ddd" transform="translate(25.461, 127.30499999999998) rotate(45, 25.461, 25.461)" style="opacity:0.10666666666666667;" ><rect x="18.0" y="0" width="18.0" height="54.0" /><rect x="0" y="18.0" width="54.0" height="18.0" /></g><g fill="#222" transform="translate(50.922, -12.7305) rotate(45, 25.461, 25.461)" style="opacity:0.13266666666666665;" ><rect x="18.0" y="0" width="18.0" height="54.0" /><rect x="0" y="18.0" width="54.0" height="18.0" /></g><g fill="#222" transform="translate(50.922, 140.03549999999998) rotate(45, 25.461, 25.461)" style="opacity:0.13266666666666665;" ><rect x="18.0" y="0" width="18.0" height="54.0" /><rect x="0" y="18.0" width="54.0" height="18.0" /></g><g fill="#ddd" transform="translate(76.383, -25.461) rotate(45, 25.461, 25.461)" style="opacity:0.08933333333333333;" ><rect x="18.0" y="0" width="18.0" height="54.0" /><rect x="0" y="18.0" width="54.0" height="18.0" /></g><g fill="#ddd" transform="translate(76.383, 127.30499999999998) rotate(45, 25.461, 25.461)" style="opacity:0.08933333333333333;" ><rect x="18.0" y="0" width="18.0" height="54.0" /><rect x="0" y="18.0" width="54.0" height="18.0" /></g><g fill="#222" transform="translate(101.844, -12.7305) rotate(45, 25.461, 25.461)" style="opacity:0.028666666666666667;" ><rect x="18.0" y="0" width="18.0" height="54.0" /><rect x="0" y="18.0" width="54.0" height="18.0" /></g><g fill="#222" transform="translate(101.844, 140.03549999999998) rotate(45, 25.461, 25.461)" style="opacity:0.028666666666666667;" ><rect x="18.0" y="0" width="18.0" height="54.0" /><rect x="0" y="18.0" width="54.0" height="18.0" /></g><g fill="#ddd" transform="translate(-25.461, 0.0) rotate(45, 25.461, 25.461)" style="opacity:0.10666666666666667;" ><rect x="18.0" y="0" width="18.0" height="54.0" /><rect x="0" y="18.0" width="54.0" height="18.0" /></g><g fill="#ddd" transform="translate(127.30499999999999, 0.0) rotate(45, 25.461, 25.461)" style="opacity:0.10666666666666667;" ><rect x="18.0" y="0" width="18.0" height="54.0" /><rect x="0" y="18.0" width="54.0" height="18.0" /></g><g fill="#222" transform="translate(0.0, 12.7305) rotate(45, 25.461, 25.461)" style="opacity:0.06333333333333334;" ><rect x="18.0" y="0" width="18.0" height="54.0" /><rect x="0" y="18.0" width="54.0" height="18.0" /></g><g fill="#222" transform="translate(25.461, 0.0) rotate(45, 25.461, 25.461)" style="opacity:0.028666666666666667;" ><rect x="18.0" y="0" width="18.0" height="54.0" /><rect x="0" y="18.0" width="54.0" height="18.0" /></g><g fill="#ddd" transform="translate(50.922, 12.7305) rotate(45, 25.461, 25.461)" style="opacity:0.02;" ><rect x="18.0" y="0" width="18.0" height="54.0" /><rect x="0" y="18.0" width="54.0" height="18.0" /></g><g fill="#222" transform="translate(76.383, 0.0) rotate(45, 25.461, 25.461)" style="opacity:0.15;" ><rect x="18.0" y="0" width="18.0" height="54.0" /><rect x="0" y="18.0" width="54.0" height="18.0" /></g><g fill="#222" transform="translate(101.844, 12.7305) rotate(45, 25.461, 25.461)" style="opacity:0.046;" ><rect x="18.0" y="0" width="18.0" height="54.0" /><rect x="0" y="18.0" width="54.0" height="18.0" /></g><g fill="#ddd" transform="translate(-25.461, 25.461) rotate(45, 25.461, 25.461)" style="opacity:0.03733333333333333;" ><rect x="18.0" y="0" width="18.0" height="54.0" /><rect x="0" y="18.0" width="54.0" height="18.0" /></g><g fill="#ddd" transform="translate(127.30499999999999, 25.461) rotate(45, 25.461, 25.461)" style="opacity:0.03733333333333333;" ><rect x="18.0" y="0" width="18.0" height="54.0" /><rect x="0" y="18.0" width="54.0" height="18.0" /></g><g fill="#222" transform="translate(0.0, 38.19149999999999) rotate(45, 25.461, 25.461)" style="opacity:0.098;" ><rect x="18.0" y="0" width="18.0" height="54.0" /><rect x="0" y="18.0" width="54.0" height="18.0" /></g><g fill="#222" transform="translate(25.461, 25.461) rotate(45, 25.461, 25.461)" style="opacity:0.11533333333333334;" ><rect x="18.0" y="0" width="18.0" height="54.0" /><rect x="0" y="18.0" width="54.0" height="18.0" /></g><g fill="#ddd" transform="translate(50.922, 38.19149999999999) rotate(45, 25.461, 25.461)" style="opacity:0.05466666666666667;" ><rect x="18.0" y="0" width="18.0" height="54.0" /><rect x="0" y="18.0" width="54.0" height="18.0" /></g><g fill="#ddd" transform="translate(76.383, 25.461) rotate(45, 25.461, 25.461)" style="opacity:0.07200000000000001;" ><rect x="18.0" y="0" width="18.0" height="54.0" /><rect x="0" y="18.0" width="54.0" height="18.0" /></g><g fill="#222" transform="translate(101.844, 38.19149999999999) rotate(45, 25.461, 25.461)" style="opacity:0.08066666666666666;" ><rect x="18.0" y="0" width="18.0" height="54.0" /><rect x="0" y="18.0" width="54.0" height="18.0" /></g><g fill="#222" transform="translate(-25.461, 50.922) rotate(45, 25.461, 25.461)" style="opacity:0.11533333333333334;" ><rect x="18.0" y="0" width="18.0" height="54.0" /><rect x="0" y="18.0" width="54.0" height="18.0" /></g><g fill="#222" transform="translate(127.30499999999999, 50.922) rotate(45, 25.461, 25.461)" style="opacity:0.11533333333333334;" ><rect x="18.0" y="0" width="18.0" height="54.0" /><rect x="0" y="18.0" width="54.0" height="18.0" /></g><g fill="#ddd" transform="translate(0.0, 63.65249999999999) rotate(45, 25.461, 25.461)" style="opacity:0.07200000000000001;" ><rect x="18.0" y="0" width="18.0" height="54.0" /><rect x="0" y="18.0" width="54.0" height="18.0" /></g><g fill="#222" transform="translate(25.461, 50.922) rotate(45, 25.461, 25.461)" style="opacity:0.13266666666666665;" ><rect x="18.0" y="0" width="18.0" height="54.0" /><rect x="0" y="18.0" width="54.0" height="18.0" /></g><g fill="#ddd" transform="translate(50.922, 63.65249999999999) rotate(45, 25.461, 25.461)" style="opacity:0.10666666666666667;" ><rect x="18.0" y="0" width="18.0" height="54.0" /><rect x="0" y="18.0" width="54.0" height="18.0" /></g><g fill="#222" transform="translate(76.383, 50.922) rotate(45, 25.461, 25.461)" style="opacity:0.08066666666666666;" ><rect x="18.0" y="0" width="18.0" height="54.0" /><rect x="0" y="18.0" width="54.0" height="18.0" /></g><g fill="#222" transform="translate(101.844, 63.65249999999999) rotate(45, 25.461, 25.461)" style="opacity:0.08066666666666666;" ><rect x="18.0" y="0" width="18.0" height="54.0" /><rect x="0" y="18.0" width="54.0" height="18.0" /></g><g fill="#ddd" transform="translate(-25.461, 76.38299999999998) rotate(45, 25.461, 25.461)" style="opacity:0.03733333333333333;" ><rect x="18.0" y="0" width="18.0" height="54.0" /><rect x="0" y="18.0" width="54.0" height="18.0" /></g><g fill="#ddd" transform="translate(127.30499999999999, 76.38299999999998) rotate(45, 25.461, 25.461)" style="opacity:0.03733333333333333;" ><rect x="18.0" y="0" width="18.0" height="54.0" /><rect x="0" y="18.0" width="54.0" height="18.0" /></g><g fill="#222" transform="translate(0.0, 89.11349999999999) rotate(45, 25.461, 25.461)" style="opacity:0.08066666666666666;" ><rect x="18.0" y="0" width="18.0" height="54.0" /><rect x="0" y="18.0" width="54.0" height="18.0" /></g><g fill="#222" transform="translate(25.461, 76.38299999999998) rotate(45, 25.461, 25.461)" style="opacity:0.046;" ><rect x="18.0" y="0" width="18.0" height="54.0" /><rect x="0" y="18.0" width="54.0" height="18.0" /></g><g fill="#ddd" transform="translate(50.922, 89.11349999999999) rotate(45, 25.461, 25.461)" style="opacity:0.10666666666666667;" ><rect x="18.0" y="0" width="18.0" height="54.0" /><rect x="0" y="18.0" width="54.0" height="18.0" /></g><g fill="#ddd" transform="translate(76.383, 76.38299999999998) rotate(45, 25.461, 25.461)" style="opacity:0.14133333333333334;" ><rect x="18.0" y="0" width="18.0" height="54.0" /><rect x="0" y="18.0" width="54.0" height="18.0" /></g><g fill="#222" transform="translate(101.844, 89.11349999999999) rotate(45, 25.461, 25.461)" style="opacity:0.06333333333333334;" ><rect x="18.0" y="0" width="18.0" height="54.0" /><rect x="0" y="18.0" width="54.0" height="18.0" /></g><g fill="#222" transform="translate(-25.461, 101.84400000000001) rotate(45, 25.461, 25.461)" style="opacity:0.06333333333333334;" ><rect x="18.0" y="0" width="18.0" height="54.0" /><rect x="0" y="18.0" width="54.0" height="18.0" /></g><g fill="#222" transform="translate(127.30499999999999, 101.84400000000001) rotate(45, 25.461, 25.461)" style="opacity:0.06333333333333334;" ><rect x="18.0" y="0" width="18.0" height="54.0" /><rect x="0" y="18.0" width="54.0" height="18.0" /></g><g fill="#222" transform="translate(-25.461, -50.92199999999997) rotate(45, 25.461, 25.461)" style="opacity:0.06333333333333334;" ><rect x="18.0" y="0" width="18.0" height="54.0" /><rect x="0" y="18.0" width="54.0" height="18.0" /></g><g fill="#ddd" transform="translate(0.0, 114.57450000000001) rotate(45, 25.461, 25.461)" style="opacity:0.14133333333333334;" ><rect x="18.0" y="0" width="18.0" height="54.0" /><rect x="0" y="18.0" width="54.0" height="18.0" /></g><g fill="#ddd" transform="translate(0.0, -38.19149999999996) rotate(45, 25.461, 25.461)" style="opacity:0.14133333333333334;" ><rect x="18.0" y="0" width="18.0" height="54.0" /><rect x="0" y="18.0" width="54.0" height="18.0" /></g><g fill="#222" transform="translate(25.461, 101.84400000000001) rotate(45, 25.461, 25.461)" style="opacity:0.028666666666666667;" ><rect x="18.0" y="0" width="18.0" height="54.0" /><rect x="0" y="18.0" width="54.0" height="18.0" /></g><g fill="#222" transform="translate(25.461, -50.92199999999997) rotate(45, 25.461, 25.461)" style="opacity:0.028666666666666667;" ><rect x="18.0" y="0" width="18.0" height="54.0" /><rect x="0" y="18.0" width="54.0" height="18.0" /></g><g fill="#ddd" transform="translate(50.922, 114.57450000000001) rotate(45, 25.461, 25.461)" style="opacity:0.02;" ><rect x="18.0" y="0" width="18.0" height="54.0" /><rect x="0" y="18.0" width="54.0" height="18.0" /></g><g fill="#ddd" transform="translate(50.922, -38.19149999999996) rotate(45, 25.461, 25.461)" style="opacity:0.02;" ><rect x="18.0" y="0" width="18.0" height="54.0" /><rect x="0" y="18.0" width="54.0" height="18.0" /></g><g fill="#ddd" transform="translate(76.383, 101.84400000000001) rotate(45, 25.461, 25.461)" style="opacity:0.03733333333333333;" ><rect x="18.0" y="0" width="18.0" height="54.0" /><rect x="0" y="18.0" width="54.0" height="18.0" /></g><g fill="#ddd" transform="translate(76.383, -50.92199999999997) rotate(45, 25.461, 25.461)" style="opacity:0.03733333333333333;" ><rect x="18.0" y="0" width="18.0" height="54.0" /><rect x="0" y="18.0" width="54.0" height="18.0" /></g><g fill="#222" transform="translate(101.844, 114.57450000000001) rotate(45, 25.461, 25.461)" style="opacity:0.098;" ><rect x="18.0" y="0" width="18.0" height="54.0" /><rect x="0" y="18.0" width="54.0" height="18.0" /></g><g fill="#222" transform="translate(101.844, -38.19149999999996) rotate(45, 25.461, 25.461)" style="opacity:0.098;" ><rect x="18.0" y="0" width="18.0" height="54.0" /><rect x="0" y="18.0" width="54.0" height="18.0" /></g></svg>