<svg xmlns="http://www.w3.org/2000/svg" width="161" height="161"><rect x="0" y="0" width="100%" height="100%" fill="rgb(114, 144, 65)" /><g fill="#222" transform="translate(-26.8755, -26.8755) rotate(45, 26.8755, 26.8755)" style="opacity:0.098;" ><rect x="19.0" y="0" width="19.0" height="57.0" /><rect x="0" y="19.0" width="57.0" height="19.0" /></g><g fill="#222" transform="translate(134.3775, -26.8755) rotate(45, 26.8755, 26.8755)" style="opacity:0.098;" ><rect x="19.0" y="0" width="19.0" height="57.0" /><rect x="0" y="19.0" width="57.0" height="19.0" /></g><g fill="#222" transform="translate(-26.8755, 134.3775) rotate(45, 26.8755, 26.8755)" style="opacity:0.098;" ><rect x="19.0" y="0" width="19.0" height="57.0" /><rect x="0" y="19.0" width="57.0" height="19.0" /></g><g fill="#222" transform="translate(134.3775, 134.3775) rotate(45, 26.8755, 26.8755)" style="opacity:0.098;" ><rect x="19.0" y="0" width="19.0" height="57.0" /><rect x="0" y="19.0" width="57.0" height="19.0" /></g><g fill="#ddd" transform="translate(0.0, -13.43775) rotate(45, 26.8755, 26.8755)" style="opacity:0.08933333333333333;" ><rect x="19.0" y="0" width="19.0" height="57.0" /><rect x="0" y="19.0" width="57.0" height="19.0" /></g><g fill="#ddd" transform="translate(0.0, 147.81525) rotate(45, 26.8755, 26.8755)" style="opacity:0.08933333333333333;" ><rect x="19.0" y="0" width="19.0" height="57.0" /><rect x="0" y="19.0" width="57.0" height="19.0" /></g><g fill="#ddd" transform="translate(26.8755, -26.8755) rotate(45, 26.8755, 26.8755)" style="opacity:0.12400000000000001;" ><rect x="19.0" y="0" width="19.0" height="57.0" /><rect x="0" y="19.0" width="57.0" height="19.0" /></g><g fill="#ddd" transform="translate(26.8755, 134.3775) rotate(45, 26.8755, 26.8755)" style="opacity:0.12400000000000001;" ><rect x="19.0" y="0" width="19.0" height="57.0" /><rect x="0" y="19.0" width="57.0" height="19.0" /></g><g fill="#222" transform="translate(53.75099999999999, -13.43775) rotate(45, 26.8755, 26.8755)" style="opacity:0.15;" ><rect x="19.0" y="0" width="19.0" height="57.0" /><rect x="0" y="19.0" width="57.0" height="19.0" /></g><g fill="#222" transform="translate(53.75099999999999, 147.81525) rotate(45, 26.8755, 26.8755)" style="opacity:0.15;" ><rect x="19.0" y="0" width="19.0" height="57.0" /><rect x="0" y="19.0" width="57.0" height="19.0" /></g><g fill="#ddd" transform="translate(80.6265, -26.8755) rotate(45, 26.8755, 26.8755)" style="opacity:0.05466666666666667;" ><rect x="19.0" y="0" width="19.0" height="57.0" /><rect x="0" y="19.0" width="57.0" height="19.0" /></g><g fill="#ddd" transform="translate(80.6265, 134.3775) rotate(45, 26.8755, 26.8755)" style="opacity:0.05466666666666667;" ><rect x="19.0" y="0" width="19.0" height="57.0" /><rect x="0" y="19.0" width="57.0" height="19.0" /></g><g fill="#222" transform="translate(107.502, -13.43775) rotate(45, 26.8755, 26.8755)" style="opacity:0.046;" ><rect x="19.0" y="0" width="19.0" height="57.0" /><rect x="0" y="19.0" width="57.0" height="19.0" /></g><g fill="#222" transform="translate(107.502, 147.81525) rotate(45, 26.8755, 26.8755)" style="opacity:0.046;" ><rect x="19.0" y="0" width="19.0" height="57.0" /><rect x="0" y="19.0" width="57.0" height="19.0" /></g><g fill="#ddd" transform="translate(-26.8755, 0.0) rotate(45, 26.8755, 26.8755)" style="opacity:0.12400000000000001;" ><rect x="19.0" y="0" width="19.0" height="57.0" /><rect x="0" y="19.0" width="57.0" height="19.0" /></g><g fill="#ddd" transform="translate(134.3775, 0.0) rotate(45, 26.8755, 26.8755)" style="opacity:0.12400000000000001;" ><rect x="19.0" y="0" width="19.0" height="57.0" /><rect x="0" y="19.0" width="57.0" height="19.0" /></g><g fill="#222" transform="translate(0.0, 13.437749999999998) rotate(45, 26.8755, 26.8755)" style="opacity:0.028666666666666667;" ><rect x="19.0" y="0" width="19.0" height="57.0" /><rect x="0" y="19.0" width="57.0" height="19.0" /></g><g fill="#ddd" transform="translate(26.8755, 0.0) rotate(45, 26.8755, 26.8755)" style="opacity:0.02;" ><rect x="19.0" y="0" width="19.0" height="57.0" /><rect x="0" y="19.0" width="57.0" height="19.0" /></g><g fill="#222" transform="translate(53.75099999999999, 13.437749999999998) rotate(45, 26.8755, 26.8755)" style="opacity:0.06333333333333334;" ><rect x="19.0" y="0" width="19.0" height="57.0" /><rect x="0" y="19.0" width="57.0" height="19.0" /></g><g fill="#ddd" transform="translate(80.6265, 0.0) rotate(45, 26.8755, 26.8755)" style="opacity:0.05466666666666667;" ><rect x="19.0" y="0" width="19.0" height="57.0" /><rect x="0" y="19.0" width="57.0" height="19.0" /></g><g fill="#ddd" transform="translate(107.502, 13.437749999999998) rotate(45, 26.8755, 26.8755)" style="opacity:0.12400000000000001;" ><rect x="19.0" y="0" width="19.0" height="57.0" /><rect x="0" y="19.0" width="57.0" height="19.0" /></g><g fill="#ddd" transform="translate(-26.8755, 26.875499999999995) rotate(45, 26.8755, 26.8755)" style="opacity:0.12400000000000001;" ><rect x="19.0" y="0" width="19.0" height="57.0" /><rect x="0" y="19.0" width="57.0" height="19.0" /></g><g fill="#ddd" transform="translate(134.3775, 26.875499999999995) rotate(45, 26.8755, 26.8755)" style="opacity:0.12400000000000001;" ><rect x="19.0" y="0" width="19.0" height="57.0" /><rect x="0" y="19.0" width="57.0" height="19.0" /></g><g fill="#ddd" transform="translate(0.0, 40.31324999999999) rotate(45, 26.8755, 26.8755)" style="opacity:0.08933333333333333;" ><rect x="19.0" y="0" width="19.0" height="57.0" /><rect x="0" y="19.0" width="57.0" height="19.0" /></g><g fill="#222" transform="translate(26.8755, 26.875499999999995) rotate(45, 26.8755, 26.8755)" style="opacity:0.06333333333333334;" ><rect x="19.0" y="0" width="19.0" height="57.0" /><rect x="0" y="19.0" width="57.0" height="19.0" /></g><g fill="#ddd" transform="translate(53.75099999999999, 40.31324999999999) rotate(45, 26.8755, 26.8755)" style="opacity:0.07200000000000001;" ><rect x="19.0" y="0" width="19.0" height="57.0" /><rect x="0" y="19.0" width="57.0" height="19.0" /></g><g fill="#222" transform="translate(80.6265, 26.875499999999995) rotate(45, 26.8755, 26.8755)" style="opacity:0.13266666666666665;" ><rect x="19.0" y="0" width="19.0" height="57.0" /><rect x="0" y="19.0" width="57.0" height="19.0" /></g><g fill="#ddd" transform="translate(107.502, 40.31324999999999) rotate(45, 26.8755, 26.8755)" style="opacity:0.05466666666666667;" ><rect x="19.0" y="0" width="19.0" height="57.0" /><rect x="0" y="19.0" width="57.0" height="19.0" /></g><g fill="#ddd" transform="translate(-26.8755, 53.751000000000005) rotate(45, 26.8755, 26.8755)" style="opacity:0.14133333333333334;" ><rect x="19.0" y="0" width="19.0" height="57.0" /><rect x="0" y="19.0" width="57.0" height="19.0" /></g><g fill="#ddd" transform="translate(134.3775, 53.751000000000005) rotate(45, 26.8755, 26.8755)" style="opacity:0.14133333333333334;" ><rect x="19.0" y="0" width="19.0" height="57.0" /><rect x="0" y="19.0" width="57.0" height="19.0" /></g><g fill="#ddd" transform="translate(0.0, 67.18875) rotate(45, 26.8755, 26.8755)" style="opacity:0.07200000000000001;" ><rect x="19.0" y="0" width="19.0" height="57.0" /><rect x="0" y="19.0" width="57.0" height="19.0" /></g><g fill="#ddd" transform="translate(26.8755, 53.751000000000005) rotate(45, 26.8755, 26.8755)" style="opacity:0.03733333333333333;" ><rect x="19.0" y="0" width="19.0" height="57.0" /><rect x="0" y="19.0" width="57.0" height="19.0" /></g><g fill="#222" transform="translate(53.75099999999999, 67.18875) rotate(45, 26.8755, 26.8755)" style="opacity:0.06333333333333334;" ><rect x="19.0" y="0" width="19.0" height="57.0" /><rect x="0" y="19.0" width="57.0" height="19.0" /></g><g fill="#222" transform="translate(80.6265, 53.751000000000005) rotate(45, 26.8755, 26.8755)" style="opacity:0.08066666666666666;" ><rect x="19.0" y="0" width="19.0" height="57.0" /><rect x="0" y="19.0" width="57.0" height="19.0" /></g><g fill="#222" transform="translate(107.502, 67.18875) rotate(45, 26.8755, 26.8755)" style="opacity:0.028666666666666667;" ><rect x="19.0" y="0" width="19.0" height="57.0" /><rect x="0" y="19.0" width="57.0" height="19.0" /></g><g fill="#222" transform="translate(-26.8755, 80.62650000000001) rotate(45, 26.8755, 26.8755)" style="opacity:0.15;" ><rect x="19.0" y="0" width="19.0" height="57.0" /><rect x="0" y="19.0" width="57.0" height="19.0" /></g><g fill="#222" transform="translate(134.3775, 80.62650000000001) rotate(45, 26.8755, 26.8755)" style="opacity:0.15;" ><rect x="19.0" y="0" width="19.0" height="57.0" /><rect x="0" y="19.0" width="57.0" height="19.0" /></g><g fill="#222" transform="translate(0.0, 94.06425) rotate(45, 26.8755, 26.8755)" style="opacity:0.06333333333333334;" ><rect x="19.0" y="0" width="19.0" height="57.0" /><rect x="0" y="19.0" width="57.0" height="19.0" /></g><g fill="#ddd" transform="translate(26.8755, 80.62650000000001) rotate(45, 26.8755, 26.8755)" style="opacity:0.03733333333333333;" ><rect x="19.0" y="0" width="19.0" height="57.0" /><rect x="0" y="19.0" width="57.0" height="19.0" /></g><g fill="#222" transform="translate(53.75099999999999, 94.06425) rotate(45, 26.8755, 26.8755)" style="opacity:0.08066666666666666;" ><rect x="19.0" y="0" width="19.0" height="57.0" /><rect x="0" y="19.0" width="57.0" height="19.0" /></g><g fill="#ddd" transform="translate(80.6265, 80.62650000000001) rotate(45, 26.8755, 26.8755)" style="opacity:0.12400000000000001;" ><rect x="19.0" y="0" width="19.0" height="57.0" /><rect x="0" y="19.0" width="57.0" height="19.0" /></g><g fill="#ddd" transform="translate(107.502, 94.06425) rotate(45, 26.8755, 26.8755)" style="opacity:0.08933333333333333;" ><rect x="19.0" y="0" width="19.0" height="57.0" /><rect x="0" y="19.0" width="57.0" height="19.0" /></g><g fill="#222" transform="translate(-26.8755, 107.50200000000001) rotate(45, 26.8755, 26.8755)" style="opacity:0.098;" ><rect x="19.0" y="0" width="19.0" height="57.0" /><rect x="0" y="19.0" width="57.0" height="19.0" /></g><g fill="#222" transform="translate(134.3775, 107.50200000000001) rotate(45, 26.8755, 26.8755)" style="opacity:0.098;" ><rect x="19.0" y="0" width="19.0" height="57.0" /><rect x="0" y="19.0" width="57.0" height="19.0" /></g><g fill="#222" transform="translate(-26.8755, -53.750999999999976) rotate(45, 26.8755, 26.8755)" style="opacity:0.098;" ><rect x="19.0" y="0" width="19.0" height="57.0" /><rect x="0" y="19.0" width="57.0" height="19.0" /></g><g fill="#ddd" transform="translate(0.0, 120.93975) rotate(45, 26.8755, 26.8755)" style="opacity:0.10666666666666667;" ><rect x="19.0" y="0" width="19.0" height="57.0" /><rect x="0" y="19.0" width="57.0" height="19.0" /></g><g fill="#ddd" transform="translate(0.0, -40.31324999999998) rotate(45, 26.8755, 26.8755)" style="opacity:0.10666666666666667;" ><rect x="19.0" y="0" width="19.0" height="57.0" /><rect x="0" y="19.0" width="57.0" height="19.0" /></g><g fill="#ddd" transform="translate(26.8755, 107.50200000000001) rotate(45, 26.8755, 26.8755)" style="opacity:0.02;" ><rect x="19.0" y="0" width="19.0" height="57.0" /><rect x="0" y="19.0" width="57.0" height="19.0" /></g><g fill="#ddd" transform="translate(26.8755, -53.750999999999976) rotate(45, 26.8755, 26.8755)" style="opacity:0.02;" ><rect x="19.0" y="0" width="19.0" height="57.0" /><rect x="0" y="19.0" width="57.0" height="19.0" /></g><g fill="#222" transform="translate(53.75099999999999, 120.93975) rotate(45, 26.8755, 26.8755)" style="opacity:0.08066666666666666;" ><rect x="19.0" y="0" width="19.0" height="57.0" /><rect x="0" y="19.0" width="57.0" height="19.0" /></g><g fill="#222" transform="translate(53.75099999999999, -40.31324999999998) rotate(45, 26.8755, 26.8755)" style="opacity:0.08066666666666666;" ><rect x="19.0" y="0" width="19.0" height="57.0" /><rect x="0" y="19.0" width="57.0" height="19.0" /></g><g fill="#222" transform="translate(80.6265, 107.50200000000001) rotate(45, 26.8755, 26.8755)" style="opacity:0.08066666666666666;" ><rect x="19.0" y="0" width="19.0" height="57.0" /><rect x="0" y="19.0" width="57.0" height="19.0" /></g><g fill="#222" transform="translate(80.6265, -53.750999999999976) rotate(45, 26.8755, 26.8755)" style="opacity:0.08066666666666666;" ><rect x="19.0" y="0" width="19.0" height="57.0" /><rect x="0" y="19.0" width="57.0" height="19.0" /></g><g fill="#222" transform="translate(107.502, 120.93975) rotate(45, 26.8755, 26.8755)" style="opacity:0.08066666666666666;" ><rect x="19.0" y="0" width="19.0" height="57.0" /><rect x="0" y="19.0" width="57.0" height="19.0" /></g><g fill="#222" transform="translate(107.502, -40.31324999999998) rotate(45, 26.8755, 26.8755)" style="opacity:0.08066666666666666;" ><rect x="19.0" y="0" width="19.0" height="57.0" /><rect x="0" y="19.0" width="57.0" height="19.0" /></g></svg>