<svg xmlns="http://www.w3.org/2000/svg" width="101" height="101"><rect x="0" y="0" width="100%" height="100%" fill="rgb(71, 130, 138)" /><g fill="#ddd" transform="translate(-16.974, -16.974) rotate(45, 16.974, 16.974)" style="opacity:0.03733333333333333;" ><rect x="12.0" y="0" width="12.0" height="36.0" /><rect x="0" y="12.0" width="36.0" height="12.0" /></g><g fill="#ddd" transform="translate(84.86999999999999, -16.974) rotate(45, 16.974, 16.974)" style="opacity:0.03733333333333333;" ><rect x="12.0" y="0" width="12.0" height="36.0" /><rect x="0" y="12.0" width="36.0" height="12.0" /></g><g fill="#ddd" transform="translate(-16.974, 84.87) rotate(45, 16.974, 16.974)" style="opacity:0.03733333333333333;" ><rect x="12.0" y="0" width="12.0" height="36.0" /><rect x="0" y="12.0" width="36.0" height="12.0" /></g><g fill="#ddd" transform="translate(84.86999999999999, 84.87) rotate(45, 16.974, 16.974)" style="opacity:0.03733333333333333;" ><rect x="12.0" y="0" width="12.0" height="36.0" /><rect x="0" y="12.0" width="36.0" height="12.0" /></g><g fill="#222" transform="translate(0.0, -8.487) rotate(45, 16.974, 16.974)" style="opacity:0.046;" ><rect x="12.0" y="0" width="12.0" height="36.0" /><rect x="0" y="12.0" width="36.0" height="12.0" /></g><g fill="#222" transform="translate(0.0, 93.357) rotate(45, 16.974, 16.974)" style="opacity:0.046;" ><rect x="12.0" y="0" width="12.0" height="36.0" /><rect x="0" y="12.0" width="36.0" height="12.0" /></g><g fill="#ddd" transform="translate(16.974, -16.974) rotate(45, 16.974, 16.974)" style="opacity:0.03733333333333333;" ><rect x="12.0" y="0" width="12.0" height="36.0" /><rect x="0" y="12.0" width="36.0" height="12.0" /></g><g fill="#ddd" transform="translate(16.974, 84.87) rotate(45, 16.974, 16.974)" style="opacity:0.03733333333333333;" ><rect x="12.0" y="0" width="12.0" height="36.0" /><rect x="0" y="12.0" width="36.0" height="12.0" /></g><g fill="#222" transform="translate(33.94799999999999, -8.487) rotate(45, 16.974, 16.974)" style="opacity:0.098;" ><rect x="12.0" y="0" width="12.0" height="36.0" /><rect x="0" y="12.0" width="36.0" height="12.0" /></g><g fill="#222" transform="translate(33.94799999999999, 93.357) rotate(45, 16.974, 16.974)" style="opacity:0.098;" ><rect x="12.0" y="0" width="12.0" height="36.0" /><rect x="0" y="12.0" width="36.0" height="12.0" /></g><g fill="#ddd" transform="translate(50.922, -16.974) rotate(45, 16.974, 16.974)" style="opacity:0.14133333333333334;" ><rect x="12.0" y="0" width="12.0" height="36.0" /><rect x="0" y="12.0" width="36.0" height="12.0" /></g><g fill="#ddd" transform="translate(50.922, 84.87) rotate(45, 16.974, 16.974)" style="opacity:0.14133333333333334;" ><rect x="12.0" y="0" width="12.0" height="36.0" /><rect x="0" y="12.0" width="36.0" height="12.0" /></g><g fill="#ddd" transform="translate(67.896, -8.487) rotate(45, 16.974, 16.974)" style="opacity:0.03733333333333333;" ><rect x="12.0" y="0" width="12.0" height="36.0" /><rect x="0" y="12.0" width="36.0" height="12.0" /></g><g fill="#ddd" transform="translate(67.896, 93.357) rotate(45, 16.974, 16.974)" style="opacity:0.03733333333333333;" ><rect x="12.0" y="0" width="12.0" height="36.0" /><rect x="0" y="12.0" width="36.0" height="12.0" /></g><g fill="#222" transform="translate(-16.974, 0.0) rotate(45, 16.974, 16.974)" style="opacity:0.06333333333333334;" ><rect x="12.0" y="0" width="12.0" height="36.0" /><rect x="0" y="12.0" width="36.0" height="12.0" /></g><g fill="#222" transform="translate(84.86999999999999, 0.0) rotate(45, 16.974, 16.974)" style="opacity:0.06333333333333334;" ><rect x="12.0" y="0" width="12.0" height="36.0" /><rect x="0" y="12.0" width="36.0" height="12.0" /></g><g fill="#222" transform="translate(0.0, 8.486999999999998) rotate(45, 16.974, 16.974)" style="opacity:0.08066666666666666;" ><rect x="12.0" y="0" width="12.0" height="36.0" /><rect x="0" y="12.0" width="36.0" height="12.0" /></g><g fill="#ddd" transform="translate(16.974, 0.0) rotate(45, 16.974, 16.974)" style="opacity:0.05466666666666667;" ><rect x="12.0" y="0" width="12.0" height="36.0" /><rect x="0" y="12.0" width="36.0" height="12.0" /></g><g fill="#ddd" transform="translate(33.94799999999999, 8.486999999999998) rotate(45, 16.974, 16.974)" style="opacity:0.12400000000000001;" ><rect x="12.0" y="0" width="12.0" height="36.0" /><rect x="0" y="12.0" width="36.0" height="12.0" /></g><g fill="#ddd" transform="translate(50.922, 0.0) rotate(45, 16.974, 16.974)" style="opacity:0.12400000000000001;" ><rect x="12.0" y="0" width="12.0" height="36.0" /><rect x="0" y="12.0" width="36.0" height="12.0" /></g><g fill="#ddd" transform="translate(67.896, 8.486999999999998) rotate(45, 16.974, 16.974)" style="opacity:0.07200000000000001;" ><rect x="12.0" y="0" width="12.0" height="36.0" /><rect x="0" y="12.0" width="36.0" height="12.0" /></g><g fill="#222" transform="translate(-16.974, 16.973999999999997) rotate(45, 16.974, 16.974)" style="opacity:0.098;" ><rect x="12.0" y="0" width="12.0" height="36.0" /><rect x="0" y="12.0" width="36.0" height="12.0" /></g><g fill="#222" transform="translate(84.86999999999999, 16.973999999999997) rotate(45, 16.974, 16.974)" style="opacity:0.098;" ><rect x="12.0" y="0" width="12.0" height="36.0" /><rect x="0" y="12.0" width="36.0" height="12.0" /></g><g fill="#ddd" transform="translate(0.0, 25.461) rotate(45, 16.974, 16.974)" style="opacity:0.08933333333333333;" ><rect x="12.0" y="0" width="12.0" height="36.0" /><rect x="0" y="12.0" width="36.0" height="12.0" /></g><g fill="#ddd" transform="translate(16.974, 16.973999999999997) rotate(45, 16.974, 16.974)" style="opacity:0.10666666666666667;" ><rect x="12.0" y="0" width="12.0" height="36.0" /><rect x="0" y="12.0" width="36.0" height="12.0" /></g><g fill="#ddd" transform="translate(33.94799999999999, 25.461) rotate(45, 16.974, 16.974)" style="opacity:0.05466666666666667;" ><rect x="12.0" y="0" width="12.0" height="36.0" /><rect x="0" y="12.0" width="36.0" height="12.0" /></g><g fill="#222" transform="translate(50.922, 16.973999999999997) rotate(45, 16.974, 16.974)" style="opacity:0.06333333333333334;" ><rect x="12.0" y="0" width="12.0" height="36.0" /><rect x="0" y="12.0" width="36.0" height="12.0" /></g><g fill="#ddd" transform="translate(67.896, 25.461) rotate(45, 16.974, 16.974)" style="opacity:0.10666666666666667;" ><rect x="12.0" y="0" width="12.0" height="36.0" /><rect x="0" y="12.0" width="36.0" height="12.0" /></g><g fill="#222" transform="translate(-16.974, 33.94799999999999) rotate(45, 16.974, 16.974)" style="opacity:0.06333333333333334;" ><rect x="12.0" y="0" width="12.0" height="36.0" /><rect x="0" y="12.0" width="36.0" height="12.0" /></g><g fill="#222" transform="translate(84.86999999999999, 33.94799999999999) rotate(45, 16.974, 16.974)" style="opacity:0.06333333333333334;" ><rect x="12.0" y="0" width="12.0" height="36.0" /><rect x="0" y="12.0" width="36.0" height="12.0" /></g><g fill="#ddd" transform="translate(0.0, 42.43499999999999) rotate(45, 16.974, 16.974)" style="opacity:0.12400000000000001;" ><rect x="12.0" y="0" width="12.0" height="36.0" /><rect x="0" y="12.0" width="36.0" height="12.0" /></g><g fill="#222" transform="translate(16.974, 33.94799999999999) rotate(45, 16.974, 16.974)" style="opacity:0.13266666666666665;" ><rect x="12.0" y="0" width="12.0" height="36.0" /><rect x="0" y="12.0" width="36.0" height="12.0" /></g><g fill="#ddd" transform="translate(33.94799999999999, 42.43499999999999) rotate(45, 16.974, 16.974)" style="opacity:0.07200000000000001;" ><rect x="12.0" y="0" width="12.0" height="36.0" /><rect x="0" y="12.0" width="36.0" height="12.0" /></g><g fill="#ddd" transform="translate(50.922, 33.94799999999999) rotate(45, 16.974, 16.974)" style="opacity:0.03733333333333333;" ><rect x="12.0" y="0" width="12.0" height="36.0" /><rect x="0" y="12.0" width="36.0" height="12.0" /></g><g fill="#ddd" transform="translate(67.896, 42.43499999999999) rotate(45, 16.974, 16.974)" style="opacity:0.07200000000000001;" ><rect x="12.0" y="0" width="12.0" height="36.0" /><rect x="0" y="12.0" width="36.0" height="12.0" /></g><g fill="#ddd" transform="translate(-16.974, 50.922) rotate(45, 16.974, 16.974)" style="opacity:0.02;" ><rect x="12.0" y="0" width="12.0" height="36.0" /><rect x="0" y="12.0" width="36.0" height="12.0" /></g><g fill="#ddd" transform="translate(84.86999999999999, 50.922) rotate(45, 16.974, 16.974)" style="opacity:0.02;" ><rect x="12.0" y="0" width="12.0" height="36.0" /><rect x="0" y="12.0" width="36.0" height="12.0" /></g><g fill="#ddd" transform="translate(0.0, 59.40899999999999) rotate(45, 16.974, 16.974)" style="opacity:0.14133333333333334;" ><rect x="12.0" y="0" width="12.0" height="36.0" /><rect x="0" y="12.0" width="36.0" height="12.0" /></g><g fill="#222" transform="translate(16.974, 50.922) rotate(45, 16.974, 16.974)" style="opacity:0.08066666666666666;" ><rect x="12.0" y="0" width="12.0" height="36.0" /><rect x="0" y="12.0" width="36.0" height="12.0" /></g><g fill="#222" transform="translate(33.94799999999999, 59.40899999999999) rotate(45, 16.974, 16.974)" style="opacity:0.08066666666666666;" ><rect x="12.0" y="0" width="12.0" height="36.0" /><rect x="0" y="12.0" width="36.0" height="12.0" /></g><g fill="#222" transform="translate(50.922, 50.922) rotate(45, 16.974, 16.974)" style="opacity:0.08066666666666666;" ><rect x="12.0" y="0" width="12.0" height="36.0" /><rect x="0" y="12.0" width="36.0" height="12.0" /></g><g fill="#ddd" transform="translate(67.896, 59.40899999999999) rotate(45, 16.974, 16.974)" style="opacity:0.12400000000000001;" ><rect x="12.0" y="0" width="12.0" height="36.0" /><rect x="0" y="12.0" width="36.0" height="12.0" /></g><g fill="#ddd" transform="translate(-16.974, 67.89600000000002) rotate(45, 16.974, 16.974)" style="opacity:0.08933333333333333;" ><rect x="12.0" y="0" width="12.0" height="36.0" /><rect x="0" y="12.0" width="36.0" height="12.0" /></g><g fill="#ddd" transform="translate(84.86999999999999, 67.89600000000002) rotate(45, 16.974, 16.974)" style="opacity:0.08933333333333333;" ><rect x="12.0" y="0" width="12.0" height="36.0" /><rect x="0" y="12.0" width="36.0" height="12.0" /></g><g fill="#ddd" transform="translate(-16.974, -33.94799999999998) rotate(45, 16.974, 16.974)" style="opacity:0.08933333333333333;" ><rect x="12.0" y="0" width="12.0" height="36.0" /><rect x="0" y="12.0" width="36.0" height="12.0" /></g><g fill="#222" transform="translate(0.0, 76.38300000000001) rotate(45, 16.974, 16.974)" style="opacity:0.046;" ><rect x="12.0" y="0" width="12.0" height="36.0" /><rect x="0" y="12.0" width="36.0" height="12.0" /></g><g fill="#222" transform="translate(0.0, -25.460999999999984) rotate(45, 16.974, 16.974)" style="opacity:0.046;" ><rect x="12.0" y="0" width="12.0" height="36.0" /><rect x="0" y="12.0" width="36.0" height="12.0" /></g><g fill="#ddd" transform="translate(16.974, 67.89600000000002) rotate(45, 16.974, 16.974)" style="opacity:0.10666666666666667;" ><rect x="12.0" y="0" width="12.0" height="36.0" /><rect x="0" y="12.0" width="36.0" height="12.0" /></g><g fill="#ddd" transform="translate(16.974, -33.94799999999998) rotate(45, 16.974, 16.974)" style="opacity:0.10666666666666667;" ><rect x="12.0" y="0" width="12.0" height="36.0" /><rect x="0" y="12.0" width="36.0" height="12.0" /></g><g fill="#222" transform="translate(33.94799999999999, 76.38300000000001) rotate(45, 16.974, 16.974)" style="opacity:0.15;" ><rect x="12.0" y="0" width="12.0" height="36.0" /><rect x="0" y="12.0" width="36.0" height="12.0" /></g><g fill="#222" transform="translate(33.94799999999999, -25.460999999999984) rotate(45, 16.974, 16.974)" style="opacity:0.15;" ><rect x="12.0" y="0" width="12.0" height="36.0" /><rect x="0" y="12.0" width="36.0" height="12.0" /></g><g fill="#222" transform="translate(50.922, 67.89600000000002) rotate(45, 16.974, 16.974)" style="opacity:0.11533333333333334;" ><rect x="12.0" y="0" width="12.0" height="36.0" /><rect x="0" y="12.0" width="36.0" height="12.0" /></g><g fill="#222" transform="translate(50.922, -33.94799999999998) rotate(45, 16.974, 16.974)" style="opacity:0.11533333333333334;" ><rect x="12.0" y="0" width="12.0" height="36.0" /><rect x="0" y="12.0" width="36.0" height="12.0" /></g><g fill="#222" transform="translate(67.896, 76.38300000000001) rotate(45, 16.974, 16.974)" style="opacity:0.13266666666666665;" ><rect x="12.0" y="0" width="12.0" height="36.0" /><rect x="0" y="12.0" width="36.0" height="12.0" /></g><g fill="#222" transform="translate(67.896, -25.460999999999984) rotate(45, 16.974, 16.974)" style="opacity:0.13266666666666665;" ><rect x="12.0" y="0" width="12.0" height="36.0" /><rect x="0" y="12.0" width="36.0" height="12.0" /></g></svg>