<svg xmlns="http://www.w3.org/2000/svg" width="93" height="93"><rect x="0" y="0" width="100%" height="100%" fill="rgb(75, 134, 89)" /><g fill="#222" transform="translate(-15.5595, -15.5595) rotate(45, 15.5595, 15.5595)" style="opacity:0.028666666666666667;" ><rect x="11.0" y="0" width="11.0" height="33.0" /><rect x="0" y="11.0" width="33.0" height="11.0" /></g><g fill="#222" transform="translate(77.7975, -15.5595) rotate(45, 15.5595, 15.5595)" style="opacity:0.028666666666666667;" ><rect x="11.0" y="0" width="11.0" height="33.0" /><rect x="0" y="11.0" width="33.0" height="11.0" /></g><g fill="#222" transform="translate(-15.5595, 77.79749999999999) rotate(45, 15.5595, 15.5595)" style="opacity:0.028666666666666667;" ><rect x="11.0" y="0" width="11.0" height="33.0" /><rect x="0" y="11.0" width="33.0" height="11.0" /></g><g fill="#222" transform="translate(77.7975, 77.79749999999999) rotate(45, 15.5595, 15.5595)" style="opacity:0.028666666666666667;" ><rect x="11.0" y="0" width="11.0" height="33.0" /><rect x="0" y="11.0" width="33.0" height="11.0" /></g><g fill="#ddd" transform="translate(0.0, -7.77975) rotate(45, 15.5595, 15.5595)" style="opacity:0.02;" ><rect x="11.0" y="0" width="11.0" height="33.0" /><rect x="0" y="11.0" width="33.0" height="11.0" /></g><g fill="#ddd" transform="translate(0.0, 85.57724999999999) rotate(45, 15.5595, 15.5595)" style="opacity:0.02;" ><rect x="11.0" y="0" width="11.0" height="33.0" /><rect x="0" y="11.0" width="33.0" height="11.0" /></g><g fill="#ddd" transform="translate(15.5595, -15.5595) rotate(45, 15.5595, 15.5595)" style="opacity:0.12400000000000001;" ><rect x="11.0" y="0" width="11.0" height="33.0" /><rect x="0" y="11.0" width="33.0" height="11.0" /></g><g fill="#ddd" transform="translate(15.5595, 77.79749999999999) rotate(45, 15.5595, 15.5595)" style="opacity:0.12400000000000001;" ><rect x="11.0" y="0" width="11.0" height="33.0" /><rect x="0" y="11.0" width="33.0" height="11.0" /></g><g fill="#ddd" transform="translate(31.119, -7.77975) rotate(45, 15.5595, 15.5595)" style="opacity:0.07200000000000001;" ><rect x="11.0" y="0" width="11.0" height="33.0" /><rect x="0" y="11.0" width="33.0" height="11.0" /></g><g fill="#ddd" transform="translate(31.119, 85.57724999999999) rotate(45, 15.5595, 15.5595)" style="opacity:0.07200000000000001;" ><rect x="11.0" y="0" width="11.0" height="33.0" /><rect x="0" y="11.0" width="33.0" height="11.0" /></g><g fill="#222" transform="translate(46.6785, -15.5595) rotate(45, 15.5595, 15.5595)" style="opacity:0.15;" ><rect x="11.0" y="0" width="11.0" height="33.0" /><rect x="0" y="11.0" width="33.0" height="11.0" /></g><g fill="#222" transform="translate(46.6785, 77.79749999999999) rotate(45, 15.5595, 15.5595)" style="opacity:0.15;" ><rect x="11.0" y="0" width="11.0" height="33.0" /><rect x="0" y="11.0" width="33.0" height="11.0" /></g><g fill="#ddd" transform="translate(62.238, -7.77975) rotate(45, 15.5595, 15.5595)" style="opacity:0.10666666666666667;" ><rect x="11.0" y="0" width="11.0" height="33.0" /><rect x="0" y="11.0" width="33.0" height="11.0" /></g><g fill="#ddd" transform="translate(62.238, 85.57724999999999) rotate(45, 15.5595, 15.5595)" style="opacity:0.10666666666666667;" ><rect x="11.0" y="0" width="11.0" height="33.0" /><rect x="0" y="11.0" width="33.0" height="11.0" /></g><g fill="#ddd" transform="translate(-15.5595, 0.0) rotate(45, 15.5595, 15.5595)" style="opacity:0.12400000000000001;" ><rect x="11.0" y="0" width="11.0" height="33.0" /><rect x="0" y="11.0" width="33.0" height="11.0" /></g><g fill="#ddd" transform="translate(77.7975, 0.0) rotate(45, 15.5595, 15.5595)" style="opacity:0.12400000000000001;" ><rect x="11.0" y="0" width="11.0" height="33.0" /><rect x="0" y="11.0" width="33.0" height="11.0" /></g><g fill="#ddd" transform="translate(0.0, 7.77975) rotate(45, 15.5595, 15.5595)" style="opacity:0.12400000000000001;" ><rect x="11.0" y="0" width="11.0" height="33.0" /><rect x="0" y="11.0" width="33.0" height="11.0" /></g><g fill="#222" transform="translate(15.5595, 0.0) rotate(45, 15.5595, 15.5595)" style="opacity:0.13266666666666665;" ><rect x="11.0" y="0" width="11.0" height="33.0" /><rect x="0" y="11.0" width="33.0" height="11.0" /></g><g fill="#ddd" transform="translate(31.119, 7.77975) rotate(45, 15.5595, 15.5595)" style="opacity:0.07200000000000001;" ><rect x="11.0" y="0" width="11.0" height="33.0" /><rect x="0" y="11.0" width="33.0" height="11.0" /></g><g fill="#ddd" transform="translate(46.6785, 0.0) rotate(45, 15.5595, 15.5595)" style="opacity:0.14133333333333334;" ><rect x="11.0" y="0" width="11.0" height="33.0" /><rect x="0" y="11.0" width="33.0" height="11.0" /></g><g fill="#222" transform="translate(62.238, 7.77975) rotate(45, 15.5595, 15.5595)" style="opacity:0.15;" ><rect x="11.0" y="0" width="11.0" height="33.0" /><rect x="0" y="11.0" width="33.0" height="11.0" /></g><g fill="#222" transform="translate(-15.5595, 15.5595) rotate(45, 15.5595, 15.5595)" style="opacity:0.046;" ><rect x="11.0" y="0" width="11.0" height="33.0" /><rect x="0" y="11.0" width="33.0" height="11.0" /></g><g fill="#222" transform="translate(77.7975, 15.5595) rotate(45, 15.5595, 15.5595)" style="opacity:0.046;" ><rect x="11.0" y="0" width="11.0" height="33.0" /><rect x="0" y="11.0" width="33.0" height="11.0" /></g><g fill="#ddd" transform="translate(0.0, 23.33925) rotate(45, 15.5595, 15.5595)" style="opacity:0.05466666666666667;" ><rect x="11.0" y="0" width="11.0" height="33.0" /><rect x="0" y="11.0" width="33.0" height="11.0" /></g><g fill="#ddd" transform="translate(15.5595, 15.5595) rotate(45, 15.5595, 15.5595)" style="opacity:0.02;" ><rect x="11.0" y="0" width="11.0" height="33.0" /><rect x="0" y="11.0" width="33.0" height="11.0" /></g><g fill="#222" transform="translate(31.119, 23.33925) rotate(45, 15.5595, 15.5595)" style="opacity:0.06333333333333334;" ><rect x="11.0" y="0" width="11.0" height="33.0" /><rect x="0" y="11.0" width="33.0" height="11.0" /></g><g fill="#222" transform="translate(46.6785, 15.5595) rotate(45, 15.5595, 15.5595)" style="opacity:0.08066666666666666;" ><rect x="11.0" y="0" width="11.0" height="33.0" /><rect x="0" y="11.0" width="33.0" height="11.0" /></g><g fill="#ddd" transform="translate(62.238, 23.33925) rotate(45, 15.5595, 15.5595)" style="opacity:0.14133333333333334;" ><rect x="11.0" y="0" width="11.0" height="33.0" /><rect x="0" y="11.0" width="33.0" height="11.0" /></g><g fill="#ddd" transform="translate(-15.5595, 31.119) rotate(45, 15.5595, 15.5595)" style="opacity:0.03733333333333333;" ><rect x="11.0" y="0" width="11.0" height="33.0" /><rect x="0" y="11.0" width="33.0" height="11.0" /></g><g fill="#ddd" transform="translate(77.7975, 31.119) rotate(45, 15.5595, 15.5595)" style="opacity:0.03733333333333333;" ><rect x="11.0" y="0" width="11.0" height="33.0" /><rect x="0" y="11.0" width="33.0" height="11.0" /></g><g fill="#222" transform="translate(0.0, 38.89874999999999) rotate(45, 15.5595, 15.5595)" style="opacity:0.13266666666666665;" ><rect x="11.0" y="0" width="11.0" height="33.0" /><rect x="0" y="11.0" width="33.0" height="11.0" /></g><g fill="#222" transform="translate(15.5595, 31.119) rotate(45, 15.5595, 15.5595)" style="opacity:0.028666666666666667;" ><rect x="11.0" y="0" width="11.0" height="33.0" /><rect x="0" y="11.0" width="33.0" height="11.0" /></g><g fill="#222" transform="translate(31.119, 38.89874999999999) rotate(45, 15.5595, 15.5595)" style="opacity:0.028666666666666667;" ><rect x="11.0" y="0" width="11.0" height="33.0" /><rect x="0" y="11.0" width="33.0" height="11.0" /></g><g fill="#ddd" transform="translate(46.6785, 31.119) rotate(45, 15.5595, 15.5595)" style="opacity:0.05466666666666667;" ><rect x="11.0" y="0" width="11.0" height="33.0" /><rect x="0" y="11.0" width="33.0" height="11.0" /></g><g fill="#ddd" transform="translate(62.238, 38.89874999999999) rotate(45, 15.5595, 15.5595)" style="opacity:0.10666666666666667;" ><rect x="11.0" y="0" width="11.0" height="33.0" /><rect x="0" y="11.0" width="33.0" height="11.0" /></g><g fill="#ddd" transform="translate(-15.5595, 46.6785) rotate(45, 15.5595, 15.5595)" style="opacity:0.10666666666666667;" ><rect x="11.0" y="0" width="11.0" height="33.0" /><rect x="0" y="11.0" width="33.0" height="11.0" /></g><g fill="#ddd" transform="translate(77.7975, 46.6785) rotate(45, 15.5595, 15.5595)" style="opacity:0.10666666666666667;" ><rect x="11.0" y="0" width="11.0" height="33.0" /><rect x="0" y="11.0" width="33.0" height="11.0" /></g><g fill="#222" transform="translate(0.0, 54.45824999999999) rotate(45, 15.5595, 15.5595)" style="opacity:0.08066666666666666;" ><rect x="11.0" y="0" width="11.0" height="33.0" /><rect x="0" y="11.0" width="33.0" height="11.0" /></g><g fill="#222" transform="translate(15.5595, 46.6785) rotate(45, 15.5595, 15.5595)" style="opacity:0.028666666666666667;" ><rect x="11.0" y="0" width="11.0" height="33.0" /><rect x="0" y="11.0" width="33.0" height="11.0" /></g><g fill="#ddd" transform="translate(31.119, 54.45824999999999) rotate(45, 15.5595, 15.5595)" style="opacity:0.08933333333333333;" ><rect x="11.0" y="0" width="11.0" height="33.0" /><rect x="0" y="11.0" width="33.0" height="11.0" /></g><g fill="#222" transform="translate(46.6785, 46.6785) rotate(45, 15.5595, 15.5595)" style="opacity:0.046;" ><rect x="11.0" y="0" width="11.0" height="33.0" /><rect x="0" y="11.0" width="33.0" height="11.0" /></g><g fill="#222" transform="translate(62.238, 54.45824999999999) rotate(45, 15.5595, 15.5595)" style="opacity:0.046;" ><rect x="11.0" y="0" width="11.0" height="33.0" /><rect x="0" y="11.0" width="33.0" height="11.0" /></g><g fill="#222" transform="translate(-15.5595, 62.238000000000014) rotate(45, 15.5595, 15.5595)" style="opacity:0.13266666666666665;" ><rect x="11.0" y="0" width="11.0" height="33.0" /><rect x="0" y="11.0" width="33.0" height="11.0" /></g><g fill="#222" transform="translate(77.7975, 62.238000000000014) rotate(45, 15.5595, 15.5595)" style="opacity:0.13266666666666665;" ><rect x="11.0" y="0" width="11.0" height="33.0" /><rect x="0" y="11.0" width="33.0" height="11.0" /></g><g fill="#222" transform="translate(-15.5595, -31.11899999999997) rotate(45, 15.5595, 15.5595)" style="opacity:0.13266666666666665;" ><rect x="11.0" y="0" width="11.0" height="33.0" /><rect x="0" y="11.0" width="33.0" height="11.0" /></g><g fill="#ddd" transform="translate(0.0, 70.01775000000002) rotate(45, 15.5595, 15.5595)" style="opacity:0.08933333333333333;" ><rect x="11.0" y="0" width="11.0" height="33.0" /><rect x="0" y="11.0" width="33.0" height="11.0" /></g><g fill="#ddd" transform="translate(0.0, -23.339249999999964) rotate(45, 15.5595, 15.5595)" style="opacity:0.08933333333333333;" ><rect x="11.0" y="0" width="11.0" height="33.0" /><rect x="0" y="11.0" width="33.0" height="11.0" /></g><g fill="#ddd" transform="translate(15.5595, 62.238000000000014) rotate(45, 15.5595, 15.5595)" style="opacity:0.08933333333333333;" ><rect x="11.0" y="0" width="11.0" height="33.0" /><rect x="0" y="11.0" width="33.0" height="11.0" /></g><g fill="#ddd" transform="translate(15.5595, -31.11899999999997) rotate(45, 15.5595, 15.5595)" style="opacity:0.08933333333333333;" ><rect x="11.0" y="0" width="11.0" height="33.0" /><rect x="0" y="11.0" width="33.0" height="11.0" /></g><g fill="#222" transform="translate(31.119, 70.01775000000002) rotate(45, 15.5595, 15.5595)" style="opacity:0.098;" ><rect x="11.0" y="0" width="11.0" height="33.0" /><rect x="0" y="11.0" width="33.0" height="11.0" /></g><g fill="#222" transform="translate(31.119, -23.339249999999964) rotate(45, 15.5595, 15.5595)" style="opacity:0.098;" ><rect x="11.0" y="0" width="11.0" height="33.0" /><rect x="0" y="11.0" width="33.0" height="11.0" /></g><g fill="#222" transform="translate(46.6785, 62.238000000000014) rotate(45, 15.5595, 15.5595)" style="opacity:0.046;" ><rect x="11.0" y="0" width="11.0" height="33.0" /><rect x="0" y="11.0" width="33.0" height="11.0" /></g><g fill="#222" transform="translate(46.6785, -31.11899999999997) rotate(45, 15.5595, 15.5595)" style="opacity:0.046;" ><rect x="11.0" y="0" width="11.0" height="33.0" /><rect x="0" y="11.0" width="33.0" height="11.0" /></g><g fill="#ddd" transform="translate(62.238, 70.01775000000002) rotate(45, 15.5595, 15.5595)" style="opacity:0.12400000000000001;" ><rect x="11.0" y="0" width="11.0" height="33.0" /><rect x="0" y="11.0" width="33.0" height="11.0" /></g><g fill="#ddd" transform="translate(62.238, -23.339249999999964) rotate(45, 15.5595, 15.5595)" style="opacity:0.12400000000000001;" ><rect x="11.0" y="0" width="11.0" height="33.0" /><rect x="0" y="11.0" width="33.0" height="11.0" /></g></svg>